<svg width="19px" xmlns="http://www.w3.org/2000/svg" viewBox="0.4134063720703125 0 32.04445266723633 21.452444076538086" version="1.1">
    <g id="d771c627-20bd-428b-81d0-f23083c6e501" stroke="none" stroke-width="1" fill="none" fill-rule="evenodd" fill-opacity="0.81">
        <g id="f36bd8e9-a75d-4679-bee7-7e1bfb3da640" transform="translate(-70.000000, -60.000000)" fill="#FFFFFF" fill-rule="nonzero">
            <g id="cde2b9f1-6412-4286-bfae-9378eb186236" transform="translate(70.000000, 60.000000)">
                <path d="M21.8722156,-5.18696197e-13 C28.7832236,-5.18696197e-13 32.4578571,2.79374426 32.4578571,7.93832212 C32.4578571,13.11697 28.7832236,15.9107143 21.8722156,15.9107143 L21.8722156,15.9107143 L17.6414042,15.91 L20.6839286,21.4524435 L17.3084671,21.4524435 L14.3238485,15.9295699 L0.413404231,15.9295699 L1.63540423,13.637 L10.0054042,13.637 L10.0055093,13.6280208 L13.1454042,13.628 L7.35340423,2.917 L8.91,2.78888024e-13 Z M21.9059279,2.38490364 L10.2174042,2.384 L16.3894042,13.628 L21.9059279,13.6280208 C26.5252212,13.6280208 29.3684033,11.8330581 29.4872987,8.17925002 L29.4911805,7.93832212 C29.4911805,4.15654634 26.6256406,2.38490364 21.9059279,2.38490364 L21.9059279,2.38490364 Z" id="1e936a17-c306-46c9-a466-c8f3f5250fe4"></path>
            </g>
        </g>
    </g>
</svg>
