<?xml version="1.0" encoding="UTF-8"?>
<svg width="700pt" height="700pt" version="1.1" viewBox="0 0 700 700" xmlns="http://www.w3.org/2000/svg">
 <g fill-rule="evenodd">
  <path fill="#ffffff" d="m342.82 216.24c-6.2148 4.5156-10.629 10.59-13.094 17.301-12.676-8.7656-30.008-9.0586-43.184 0.51172-5.5 3.9961-9.5898 9.2148-12.164 15.012l-46.824-64.445c-12.117-16.684-35.465-20.379-52.148-8.2617-16.68 12.121-20.379 35.469-8.2578 52.148l107.07 147.38-34.434-15.328c-18.836-8.3867-40.902 0.082031-49.289 18.918-8.3867 18.836 0.082032 40.906 18.918 49.293 4.3398 1.9297 21.035 9.3555 24.516 10.914 26.621 11.922 55.883 43.641 82.574 55.551 37.25 16.617 92.191 34.246 95.301 35.27 4.8945 1.6094 10.172-1.0508 11.785-5.9492 1.6094-4.8945-1.0508-10.172-5.9492-11.781-3.0508-1.0039-62.836-20.781-93.602-34.613-20.895-9.3906-53.527-42.762-82.516-55.531-3.4844-1.5352-20.176-8.9805-24.516-10.914-9.418-4.1914-13.652-15.227-9.4609-24.645 4.1953-9.418 15.227-13.652 24.645-9.4609l63.812 28.41c6.668 3.6211 18.992-5.7617 12.422-14.809l-126.18-173.67c-6.0586-8.3398-4.2109-20.012 4.1289-26.074 8.3398-6.0586 20.016-4.2109 26.074 4.1328l93.262 128.36c3.0312 4.168 8.8672 5.0938 13.039 2.0625 4.168-3.0273 5.0938-8.8633 2.0625-13.035l-27.43-37.754c-6.0586-8.3398-4.2109-20.016 4.1289-26.074 8.3398-6.0586 20.016-4.2109 26.074 4.1289l27.43 37.754c3.0312 4.1719 8.8672 5.0977 13.039 2.0664 4.168-3.0312 5.0938-8.8672 2.0625-13.039l-16.457-22.652c-6.0586-8.3398-4.2109-20.012 4.1289-26.07 8.3398-6.0625 20.016-4.2109 26.074 4.1289l27.43 37.754c3.0312 4.168 8.8672 5.0938 13.039 2.0625 4.168-3.0273 5.0938-8.8633 2.0625-13.035l-16.457-22.652c-6.0586-8.3398-4.2109-20.016 4.1289-26.074 8.3398-6.0586 20.016-4.2109 26.074 4.1289l38.402 52.855c35.93 49.457 39.965 118.53 68.543 157.86 3.0312 4.1719 8.8672 5.0938 13.039 2.0664 4.168-3.0312 5.0938-8.8672 2.0625-13.039-24.625-33.895-32.473-108.21-68.543-157.86l-38.402-52.859c-12.121-16.68-35.465-20.375-52.148-8.2578-6.2148 4.5156-10.629 10.594-13.094 17.301-12.676-8.7617-30.008-9.0586-43.184 0.51562z"/>
  <path fill="#ffffff" d="m291.27 96.066c3.6445 3.6445 3.6445 9.5547 0 13.199s-9.5547 3.6445-13.199 0l-37.332-37.332c-3.6445-3.6445-3.6445-9.5547 0-13.199l37.332-37.336c3.6445-3.6445 9.5547-3.6445 13.199 0 3.6445 3.6484 3.6445 9.5547 0 13.203l-21.398 21.398h182.8c5.1523 0 9.332 4.1797 9.332 9.332 0 5.1562-4.1797 9.3359-9.332 9.3359h-182.86z"/>
 </g>
</svg>
