<svg width="70" height="17" viewBox="0 0 70 17" fill="none" xmlns="http://www.w3.org/2000/svg">
<path d="M23.2607 0.50141V5.35256C22.2804 4.6753 21.0959 4.29268 19.8198 4.29268C16.4917 4.29268 13.8019 6.95338 13.8019 10.2473C13.8019 13.5637 16.4917 16.2031 19.8198 16.2031C21.0959 16.2031 22.2804 15.8207 23.2607 15.1438V15.9543H26.1561V0.500828L23.2607 0.50141ZM27.5695 0.50141V3.3671H30.4636V0.50141H27.5695ZM41.1087 0.50141V5.35256C40.1285 4.6753 38.9426 4.29268 37.6665 4.29268C34.3384 4.29268 31.65 6.95338 31.65 10.2473C31.65 13.5637 34.3384 16.2031 37.6665 16.2031C38.9426 16.2031 40.1285 15.8207 41.1087 15.1438V15.9543H44.0028V0.500828L41.1087 0.50141ZM6.28063 4.29268C2.95252 4.29268 0.262695 6.95338 0.262695 10.2473C0.262695 13.5637 2.95252 16.2031 6.28063 16.2031C7.5567 16.2031 8.74119 15.8207 9.72146 15.1438V15.9543H12.6169V4.4264H9.72146V5.35198C8.74119 4.67471 7.5567 4.29268 6.28063 4.29268ZM51.2057 4.29268C47.8776 4.29268 45.1891 6.95338 45.1891 10.2473C45.1891 13.5637 47.8776 16.2031 51.2057 16.2031C52.4817 16.2031 53.6676 15.8207 54.648 15.1438V15.9543H57.542V4.4264H54.648V5.35198C53.6676 4.67471 52.4817 4.29268 51.2057 4.29268ZM63.6969 4.29268C60.6653 4.29268 58.8641 5.93896 58.8641 8.08221C58.8641 10.6995 61.0081 11.1269 62.8544 11.4653L64.3808 11.7369C65.4746 11.9397 65.954 12.2548 65.954 12.8869C65.954 13.4508 65.4064 14.0148 64.1067 14.0148C62.2149 14.0148 61.5994 13.0455 61.5767 12.2101H58.6142C58.7008 14.5338 60.7115 16.181 64.0623 16.181C66.7974 16.181 69.0537 15.0077 69.0537 12.4136C69.0537 10.6087 68.0277 9.54874 65.6572 9.09732L63.8111 8.73744C62.6259 8.51168 61.8051 8.28487 61.8051 7.5857C61.8051 6.81889 62.6029 6.48047 63.6055 6.48047C65.0646 6.48047 65.6574 7.20329 65.7028 8.06012H68.6211C68.4613 5.8038 66.637 4.29268 63.6969 4.29268ZM27.5695 4.42698V15.9549H30.4636V4.42698H27.5695ZM6.41632 6.95314C8.26336 6.95314 9.7443 8.41994 9.7443 10.2473C9.7443 12.0747 8.26336 13.5409 6.41632 13.5409C4.56997 13.5409 3.0896 12.0747 3.0896 10.2473C3.0896 8.41994 4.56997 6.95314 6.41632 6.95314ZM19.9568 6.95314C21.8025 6.95314 23.2835 8.41994 23.2835 10.2473C23.2835 12.0747 21.8025 13.5409 19.9568 13.5409C18.1098 13.5409 16.6288 12.0747 16.6288 10.2473C16.6288 8.41994 18.1098 6.95314 19.9568 6.95314ZM37.8035 6.95314C39.6499 6.95314 41.1316 8.41994 41.1316 10.2473C41.1316 12.0747 39.6499 13.5409 37.8035 13.5409C35.9572 13.5409 34.4755 12.0747 34.4755 10.2473C34.4755 8.41994 35.9572 6.95314 37.8035 6.95314ZM51.3428 6.95314C53.1884 6.95314 54.6708 8.41994 54.6708 10.2473C54.6708 12.0747 53.1884 13.5409 51.3428 13.5409C49.4963 13.5409 48.0146 12.0747 48.0146 10.2473C48.0146 8.41994 49.4963 6.95314 51.3428 6.95314Z" fill="white"/>
</svg>
