<svg width="68" height="20" viewBox="0 0 68 20" fill="none" xmlns="http://www.w3.org/2000/svg">
<path d="M67.0703 7.24386V9.27427L61.6408 14.3956V11.5675L65.194 8.23187L61.6408 4.83275V2.07719L67.0703 7.24386Z" fill="white"/>
<path d="M50.9466 15.7281H48.8256V3.62718C48.8256 2.87484 48.463 2.53946 47.8104 2.53946C47.2303 2.53946 46.6048 2.757 45.8525 3.2918V15.7281H43.7314V0.699402H45.8525V1.66929C46.4598 1.08917 47.2756 0.536244 48.4358 0.536244C49.5235 0.536244 50.2487 0.971332 50.6294 1.76899C51.3817 1.11636 52.27 0.536244 53.5028 0.536244C55.1434 0.536244 55.9864 1.55145 55.9864 3.19209V15.7462H53.8653V3.62718C53.8653 2.87484 53.5028 2.53946 52.8501 2.53946C52.27 2.53946 51.6446 2.757 50.8922 3.2918V15.7281H50.9466Z" fill="white"/>
<path fill-rule="evenodd" clip-rule="evenodd" d="M35.3466 7.34357C33.7332 7.89649 33.1259 8.64883 33.1259 10.507H33.1802V13.2354C33.1802 14.9213 33.9688 15.8912 35.6639 15.8912C36.8694 15.8912 37.6671 15.3292 38.2472 14.7763V15.719H40.3683V3.90819C40.3683 1.63304 39.208 0.5 36.9601 0.5H36.5522C34.277 0.5 33.144 1.66023 33.144 3.90819V5.95672H35.1925V3.83567C35.1925 2.9383 35.6276 2.45789 36.525 2.45789H36.8604C37.7577 2.45789 38.1928 2.9383 38.1928 3.83567V6.37368L35.3466 7.34357ZM38.2017 8.24093V13.1901C37.4947 13.6705 36.9146 13.888 36.271 13.9152C35.5912 13.9152 35.2286 13.5526 35.2286 12.8275V10.5342C35.2286 9.66403 35.5005 9.28333 36.271 8.96608L38.2017 8.24093Z" fill="white"/>
<path fill-rule="evenodd" clip-rule="evenodd" d="M24.477 0.699392H22.3559V19.671H24.477V14.8125C24.9846 15.3201 25.8276 15.9003 27.0603 15.9003C28.8641 15.9003 29.7615 14.7128 29.7615 12.9272V3.50933C29.7615 1.74179 28.8732 0.536234 27.0603 0.536234C25.8548 0.536234 24.9846 1.13448 24.477 1.66927V0.699392ZM26.4346 13.888C25.7367 13.888 25.0569 13.6251 24.4767 13.1175V3.30993C25.0569 2.82952 25.7367 2.53946 26.4346 2.53946C27.2323 2.53946 27.6674 2.90203 27.6674 3.77221V12.6552C27.6674 13.5254 27.2051 13.888 26.4346 13.888Z" fill="white"/>
<path fill-rule="evenodd" clip-rule="evenodd" d="M14.5506 12.5827V9.0839H14.5597V9.06578H19.6538V3.9263C19.6538 1.65116 18.4936 0.518117 16.2457 0.518117H15.8106C13.5354 0.518117 12.4024 1.67835 12.4024 4.18917V12.7821C12.4024 14.7854 13.5626 15.9184 15.8106 15.9184H16.2457C18.5208 15.9184 19.6538 14.7582 19.6538 12.5102V10.8696H17.6053V12.5827C17.6053 13.4801 17.1702 13.9152 16.2728 13.9152H15.8831C14.9857 13.9152 14.5506 13.4801 14.5506 12.5827ZM17.5687 7.02632H14.5684V3.83568C14.5684 2.93831 15.0035 2.50322 15.9009 2.50322H16.2363C17.1336 2.50322 17.5687 2.93831 17.5687 3.83568V7.02632Z" fill="white"/>
<path d="M6.25375 2.07719V4.85087L2.70053 8.23187L6.25375 11.5675V14.3956L0.824219 9.27427V7.24386L6.25375 2.07719Z" fill="white"/>
</svg>
