<svg width="93" height="12" viewBox="0 0 93 12" fill="none" xmlns="http://www.w3.org/2000/svg">
<path fill-rule="evenodd" clip-rule="evenodd" d="M20.4355 2.28481C17.4546 2.28481 15.5793 4.35961 15.5793 7.26018C15.5793 10.0565 17.6506 11.9377 20.4355 11.9377C22.8996 11.9377 24.8265 10.5317 25.0943 8.08733H22.1501C22.0063 9.05511 21.4705 9.65192 20.4175 9.65192C19.1317 9.65192 18.6146 8.4396 18.6146 7.26018C18.6146 5.99556 18.8823 4.57021 20.5782 4.57021C21.3451 4.57021 22.0416 5.11749 22.0607 5.89026H25.0042C24.7915 3.48085 22.7389 2.28481 20.4355 2.28481ZM52.9651 2.28481C51.6513 2.28481 50.7275 2.87954 50.175 3.83658H50.1376V2.5491H47.1937V11.6748H50.2277V6.93632C50.2277 5.60415 50.8106 4.74478 51.8695 4.74513C53.4441 4.74513 53.3877 6.01218 53.3877 7.25983V11.6748H56.4226V5.81856C56.4226 4.49955 56.0537 2.28481 52.9651 2.28481ZM61.8247 2.28481C60.7707 2.28481 59.7 2.46146 58.8784 2.91937C58.0575 3.39253 57.486 4.16703 57.433 5.36238H60.2715C60.4146 4.58891 60.9497 4.22071 61.7887 4.22071C62.4142 4.22071 63.2521 4.48188 63.2521 5.16771C63.2521 5.73231 62.9664 5.90654 62.4492 6.01287C60.3429 6.43372 57.0582 6.20615 57.0582 9.17634C57.0582 11.0589 58.4506 11.9373 60.2165 11.9373C61.3249 11.9373 62.4859 11.6211 63.2705 10.813C63.3068 11.1119 63.3415 11.3921 63.4485 11.6748H66.5022C66.1451 10.954 66.1454 10.1091 66.1454 9.33498V5.34333C66.1454 2.76039 64.0193 2.28481 61.8247 2.28481ZM63.2133 7.40201C63.2847 9.28423 62.8015 10.0916 61.3564 10.0916C60.6778 10.0916 60.0894 9.79202 60.0894 9.05562C60.0894 8.33342 60.6612 8.05182 61.3391 7.89422C62.0007 7.7186 62.7856 7.66665 63.2133 7.40201ZM67.1316 0.517291V11.6776H70.1659V0.516944L67.1316 0.517291ZM77.391 0.516944V3.53632H77.3536C76.7294 2.70986 75.8545 2.28763 74.7121 2.28763C72.0873 2.28763 70.8029 4.53805 70.8029 6.91143C70.8029 9.47844 72.035 11.9398 74.9442 11.9398C76.0152 11.9398 76.9082 11.4829 77.4974 10.6211H77.532V11.6769H80.4253V0.516944H77.391ZM75.6934 4.57042C77.0145 4.57042 77.497 5.78447 77.497 7.10244C77.497 8.26211 77.1755 9.65144 75.6934 9.65144C74.3009 9.65144 73.8378 8.26246 73.8378 7.01446C73.8378 5.85479 74.3009 4.57042 75.6934 4.57042ZM81.0533 0.516944V3.53563H82.4735L83.8915 0.516944H81.0533ZM25.7261 0.516944V11.6772H30.5983C34.0413 11.6772 36.1518 9.70739 36.1518 6.05137C36.1518 2.59556 34.0725 0.516944 30.5983 0.516944H25.7261ZM28.9644 3.1019H30.3277C32.0912 3.1019 32.8816 4.26296 32.8816 6.04023C32.8816 7.99519 32.2443 9.08836 30.3277 9.08836H28.9644V3.1019ZM2.80664 0.5L0.46582 11.6755H3.80802L4.66946 7.2374C4.76162 6.74702 4.84005 6.25416 4.90465 5.7594H4.93825C4.9909 6.06837 5.12703 6.68007 5.26385 7.20207L6.47825 11.6755H9.80001L11.0123 7.20207C11.1505 6.68007 11.286 6.06837 11.3379 5.7594H11.3736C11.4031 5.99667 11.4962 6.66587 11.6081 7.2374L12.4695 11.6755H15.8111L13.4706 0.5H9.92852L8.50941 6.11305C8.3906 6.5481 8.24408 7.25264 8.15541 7.62014H8.12216C8.0321 7.25264 7.88662 6.5481 7.76816 6.11305L6.34836 0.5H2.80664ZM41.6655 2.28481C38.6742 2.28481 36.7899 4.37797 36.7899 7.11955C36.7899 9.86183 38.6735 11.9543 41.6648 11.9543C44.6565 11.9543 46.539 9.86217 46.539 7.11955C46.539 4.37797 44.6568 2.28481 41.6655 2.28481ZM41.6637 4.57042C42.9755 4.57042 43.502 5.65908 43.502 7.11976C43.502 8.58182 42.9758 9.6691 41.6641 9.6691C40.3513 9.6691 39.8248 8.58182 39.8248 7.11976C39.8248 5.65874 40.351 4.57042 41.6637 4.57042ZM87.5065 2.28481C85.7102 2.28481 83.2527 2.88231 83.2527 5.08077C83.2527 7.54248 85.6926 7.59409 87.5779 8.06932C88.1054 8.19332 89.0403 8.33291 89.04 9.03675C89.04 9.75861 88.2114 10.0045 87.6299 10.0045C87.2069 10.0045 86.8418 9.89889 86.5606 9.6876C86.261 9.4583 86.0677 9.12335 86.0677 8.66751H83.1723C83.261 11.2182 85.4809 11.938 87.6482 11.938C89.7099 11.938 92.1141 11.1289 92.1141 8.68553C92.1141 7.92938 91.6395 6.59271 89.7892 6.22243C88.4144 5.92524 86.3275 5.76729 86.3275 4.9055C86.3275 4.27163 87.1207 4.21898 87.6129 4.21898C87.9835 4.21898 88.2779 4.28964 88.5249 4.44759C88.7712 4.60623 88.9128 4.85182 88.9128 5.23872H91.7182C91.6129 2.86534 89.5155 2.28481 87.5065 2.28481Z" fill="white"/>
</svg>
