<svg width="82" height="11" viewBox="0 0 82 11" fill="none" xmlns="http://www.w3.org/2000/svg">
<path fill-rule="evenodd" clip-rule="evenodd" d="M81.7153 0.673334V2.53094H77.8462V10.7029H75.2366V2.53094H71.3684V0.673334H81.7153Z" fill="white"/>
<path fill-rule="evenodd" clip-rule="evenodd" d="M72.4811 8.84387V10.7024H64.1905V0.673334H66.7973V8.84387H72.4811Z" fill="white"/>
<path fill-rule="evenodd" clip-rule="evenodd" d="M22.2595 10.7024H13.5495V0.673334H22.0956V2.5319H16.1591V4.73501H21.5833V6.53401H16.1591V8.84387H22.2595V10.7024Z" fill="white"/>
<path fill-rule="evenodd" clip-rule="evenodd" d="M33.1828 0.671875V7.32458C32.5743 6.55828 31.9352 5.81962 30.8558 4.633C29.9775 3.66798 28.1461 1.68932 27.2054 0.673781H24.6863L24.5815 1.27805C24.5815 1.27805 24.6892 1.45867 24.8112 1.6755C24.9508 1.91425 24.9799 2.0272 24.9842 2.15587L24.9818 10.7024L27.3269 10.6953V4.0516C27.7944 4.67589 28.6274 5.63376 29.1836 6.23565C30.2901 7.43228 31.9614 9.29895 33.2624 10.7024H35.516V0.673781L33.1828 0.671875Z" fill="white"/>
<path fill-rule="evenodd" clip-rule="evenodd" d="M58.7269 0.673334V6.80659C58.7269 7.48997 58.5897 7.89743 58.2561 8.21005C57.8339 8.60225 57.1367 8.79002 56.1302 8.79002C55.107 8.79002 54.3922 8.60225 53.9719 8.21005C53.6392 7.89743 53.501 7.48902 53.501 6.80659V0.673334H50.5978L50.492 1.27761C50.492 1.27761 50.5997 1.45822 50.7208 1.67505C50.8537 1.90475 50.8843 2.0177 50.8904 2.14255C50.8904 2.15733 50.8924 6.90048 50.8924 6.90048C50.8924 9.52343 52.6694 10.8578 56.0949 10.8578H56.1669C59.5957 10.8578 61.2784 9.55918 61.2784 6.90048V0.673334H58.7269Z" fill="white"/>
<path fill-rule="evenodd" clip-rule="evenodd" d="M41.5279 7.07586C42.2142 5.36693 42.9009 3.75093 43.4556 2.49759C44.0098 3.75093 44.6999 5.36693 45.3852 7.07586H41.5279ZM45.0882 0.673773H41.8281C40.8397 2.71533 39.1198 6.4825 37.5095 10.7029H40.1272C40.336 10.1329 40.5581 9.54961 40.7806 8.9663H46.1347C46.3596 9.54961 46.5803 10.1329 46.7881 10.7029H49.4067C47.796 6.4825 46.0761 2.71533 45.0882 0.673773Z" fill="white"/>
<path fill-rule="evenodd" clip-rule="evenodd" d="M7.55691 5.34926C7.35628 5.54512 7.11848 5.63995 6.7482 5.63995H3.18976V2.58286H6.00096C6.83684 2.58286 7.28432 2.67769 7.58503 2.92216C7.88049 3.15806 8.02346 3.51833 8.02346 4.04969C8.02346 4.59916 7.87764 5.04045 7.55691 5.34926ZM10.6834 3.92736C10.6834 2.88466 10.3789 2.07547 9.74176 1.54315C8.99976 0.928875 7.98375 0.673442 6.26815 0.673442H0.286436L0.179688 1.27867C0.179688 1.27867 0.286436 1.45833 0.41034 1.67516C0.595243 1.99445 0.579994 2.08833 0.579994 2.30231V10.7025H3.19008V7.49151H6.43161L8.17151 10.7025H11.0451L8.87681 6.97731C9.99338 6.37209 10.6834 5.17879 10.6834 3.92736Z" fill="white"/>
</svg>
