<svg width="96" height="19" viewBox="0 0 96 19" fill="none" xmlns="http://www.w3.org/2000/svg">
<path fill-rule="evenodd" clip-rule="evenodd" d="M25.5068 1.00391H27.9498V15.458H25.5068V1.00391Z" fill="white"/>
<path fill-rule="evenodd" clip-rule="evenodd" d="M12.8629 6.22118C12.8629 5.87914 12.6278 5.69292 12.3579 5.69292C12.0894 5.69292 11.8483 5.87378 11.8483 6.22118V13.1825C11.8483 13.5294 12.0893 13.7107 12.3579 13.7107C12.6279 13.7107 12.8629 13.5213 12.8629 13.1825V10.9012H15.3034V13.004C15.3034 14.7097 13.962 15.5987 12.3466 15.5987C10.8016 15.5987 9.40723 14.7383 9.40723 13.004V6.39823C9.40723 4.66761 10.8017 3.80469 12.3466 3.80469C13.9347 3.80469 15.3034 4.69442 15.3034 6.39823V8.28122H12.8629V6.22118Z" fill="white"/>
<path fill-rule="evenodd" clip-rule="evenodd" d="M19.8968 6.53589C19.8968 6.1886 20.1371 6.00775 20.4058 6.00775C20.6754 6.00775 20.9115 6.19503 20.9115 6.53589V15.4592H23.3543V5.89861C23.3543 4.34063 22.3446 3.80391 21.574 3.80391C20.7131 3.80391 20.1083 4.42618 19.9414 4.74213H19.9018V1.00391H17.459V15.4592H19.8967L19.8968 6.53589Z" fill="white"/>
<path fill-rule="evenodd" clip-rule="evenodd" d="M33.5589 12.9748C33.5589 13.3149 33.3229 13.5033 33.0531 13.5033C32.7853 13.5033 32.5442 13.3221 32.5442 12.9748V3.93945H30.1025V13.5338C30.1025 14.806 30.9799 15.5992 31.9213 15.5992C32.8753 15.5992 33.393 14.9078 33.5396 14.6545H33.5946L33.6383 15.4583H36.0006V3.93945H33.559V12.9748H33.5589Z" fill="white"/>
<path fill-rule="evenodd" clip-rule="evenodd" d="M40.5952 15.4599H38.1533V3.9411H40.5718L40.5963 4.74458H40.6451C40.8243 4.39109 41.4053 3.80469 42.2859 3.80469C43.1978 3.80469 43.7841 4.50713 43.9093 4.92042H43.9438C44.1261 4.50022 44.7654 3.80469 45.6904 3.80469C46.6249 3.80469 47.5204 4.43863 47.5204 6.0065V15.4599H45.0777V6.42265C45.0777 6.07452 44.8387 5.89331 44.5697 5.89331C44.2998 5.89331 44.0618 6.08024 44.0618 6.42265V15.4599H41.6078V6.42682C41.6078 6.07858 41.3645 5.89748 41.0959 5.89748C40.8261 5.89748 40.5951 6.08513 40.5951 6.42682V15.4599H40.5952Z" fill="white"/>
<path fill-rule="evenodd" clip-rule="evenodd" d="M53.7278 3.80391C52.9105 3.80308 52.3224 4.49539 52.1685 4.74785H52.1163V1.00391H49.6738V15.4592H52.089L52.1163 14.6553H52.1685C52.2906 14.9656 52.8147 15.5956 53.7105 15.5968C54.7445 15.5981 55.5853 14.707 55.5853 13.3596V5.89861C55.5853 4.60286 54.7086 3.80391 53.7278 3.80391ZM53.1343 12.9796C53.1343 13.321 52.8982 13.5084 52.6273 13.5084C52.359 13.5084 52.1175 13.3263 52.1175 12.9796V6.42938C52.1175 6.08197 52.359 5.90112 52.6273 5.90112C52.8981 5.90112 53.1343 6.08924 53.1343 6.42938V12.9796Z" fill="white"/>
<path fill-rule="evenodd" clip-rule="evenodd" d="M60.1843 13.19C60.1843 13.5373 60.4266 13.7187 60.6953 13.7187C60.9641 13.7187 61.1999 13.5314 61.1999 13.19V10.9032H63.6412V13.0041C63.6412 14.7411 62.2117 15.6008 60.6851 15.6008C59.1389 15.6008 57.7393 14.7411 57.7393 13.0041V6.40423C57.7393 4.67278 59.1368 3.80664 60.6831 3.80664C62.2699 3.80664 63.6411 4.69232 63.6411 6.40423V10.1261H60.1841V13.19H60.1843ZM61.2 8.36955V6.22516C61.2 5.88443 60.9642 5.69702 60.6955 5.69702C60.4267 5.69702 60.1845 5.87692 60.1845 6.22516L60.1866 8.36955H61.2Z" fill="white"/>
<path fill-rule="evenodd" clip-rule="evenodd" d="M68.7492 5.89939C68.4816 5.89939 68.2381 6.08024 68.2381 6.42873V15.4599H65.7939V3.9411H68.1891L68.2361 4.74291H68.2901C68.5207 4.42278 69.1103 3.80469 69.9263 3.80469C70.8721 3.80469 71.6976 4.57182 71.6976 5.79026V10.1141H69.2535V6.35224C69.2535 6.07667 68.9901 5.89939 68.7437 5.89939H68.7492Z" fill="white"/>
<path fill-rule="evenodd" clip-rule="evenodd" d="M84.3462 13.19C84.3462 13.5373 84.5893 13.7187 84.8573 13.7187C85.1269 13.7187 85.3622 13.5314 85.3622 13.19V10.9032H87.8038V13.0041C87.8038 14.7411 86.3716 15.6008 84.8471 15.6008C83.3008 15.6008 81.9033 14.7411 81.9033 13.0041V6.40423C81.9033 4.67278 83.2988 3.80664 84.845 3.80664C86.4314 3.80664 87.8038 4.69232 87.8038 6.40423V10.1261H84.3462V13.19ZM85.3622 8.36955V6.22516C85.3622 5.88443 85.1267 5.69702 84.8573 5.69702C84.5893 5.69702 84.3462 5.87692 84.3462 6.22516L84.3483 8.36955H85.3622Z" fill="white"/>
<path fill-rule="evenodd" clip-rule="evenodd" d="M92.915 5.89939C92.644 5.89939 92.4029 6.08024 92.4029 6.42873V15.4599H89.958V3.9411H92.352L92.4008 4.74291H92.4537C92.6846 4.42278 93.2751 3.80469 94.0915 3.80469C95.0379 3.80469 95.8637 4.57182 95.8637 5.79026V10.1141H93.4177V6.35224C93.4177 6.07667 93.1542 5.89939 92.9086 5.89939H92.915Z" fill="white"/>
<path fill-rule="evenodd" clip-rule="evenodd" d="M77.3063 12.2588C77.3063 12.5988 77.072 12.7862 76.8014 12.7862C76.5333 12.7862 76.2916 12.6062 76.2916 12.2588V6.43206C76.2916 6.08596 76.5333 5.90594 76.8014 5.90594C77.072 5.90594 77.3063 6.09168 77.3063 6.43206V12.2588ZM77.3063 16.3037C77.3063 16.6445 77.0707 16.831 76.8014 16.831C76.5333 16.831 76.2916 16.6498 76.2916 16.3037V15.3695H73.8527V16.0044C73.8527 17.805 75.0943 18.606 76.7932 18.606C78.4786 18.606 79.7499 17.805 79.7499 16.0044V3.9411H77.3428L77.3063 4.74863H77.2472C77.1197 4.48473 76.5479 3.80469 75.637 3.80469C74.7561 3.80469 73.8525 4.48152 73.8525 5.73248V12.6119C73.8525 13.9294 74.6984 14.6985 75.6513 14.6985C76.557 14.6985 77.0842 14.0929 77.2341 13.8531H77.3061L77.3063 16.3037Z" fill="white"/>
<path fill-rule="evenodd" clip-rule="evenodd" d="M3.46422 13.0034C3.46422 13.3515 3.70631 13.5327 3.9752 13.5327C4.24458 13.5327 4.47904 13.3441 4.47904 13.0034V11.6374C4.47904 10.5474 4.24565 10.1515 3.43634 9.39095C2.74652 8.74189 2.3984 8.40794 1.9527 7.98774C1.3825 7.44851 0.724732 6.69758 0.724732 5.29436V3.56291C0.724017 1.66241 2.30559 0.955078 3.97187 0.955078C5.6329 0.955078 7.20149 1.67789 7.20149 3.54945V5.78176H4.47892V3.61581C4.47892 3.2746 4.24374 3.08719 3.97401 3.08719C3.70523 3.08719 3.46422 3.26876 3.46422 3.61581V4.65577C3.46422 5.55658 3.74622 5.95272 4.49298 6.66577C4.79333 6.95325 5.47314 7.61459 5.9964 8.12487C6.932 9.0414 7.25546 9.86811 7.25546 11.0051V12.9401C7.25546 14.9521 5.636 15.6586 3.97187 15.6586C2.28629 15.6587 0.714844 14.9521 0.714844 13.0359V10.264H3.46422V13.0034Z" fill="white"/>
</svg>
