<svg width="80" height="15" viewBox="0 0 80 15" fill="none" xmlns="http://www.w3.org/2000/svg">
<path d="M11.4769 8.32017C11.4769 8.28731 11.3192 8.03633 11.2705 7.992C11.2513 7.97457 11.1672 7.87047 11.0836 7.7613C11.0001 7.65191 10.9028 7.54671 10.8671 7.52774C10.8044 7.49422 10.75 7.44989 10.5466 7.26926C10.4937 7.22184 10.3984 7.15898 10.3344 7.12899C10.2707 7.099 10.169 7.03349 10.1079 6.98365C10.0473 6.93358 9.98576 6.89278 9.97142 6.89278C9.95753 6.89278 9.87152 6.84272 9.78021 6.7814C9.68912 6.72009 9.59517 6.66981 9.57091 6.66981C9.51974 6.66981 9.26853 6.5377 9.2531 6.50263C9.24736 6.4894 9.222 6.47881 9.1973 6.47881C9.17282 6.47881 9.15209 6.46448 9.15209 6.44705C9.15209 6.42941 9.12915 6.41507 9.1007 6.41507C9.07225 6.41507 8.96815 6.37427 8.86978 6.32487C8.34863 6.06264 8.08287 5.93516 8.05838 5.93626C8.04383 5.9367 7.99244 5.90958 7.94502 5.87583C7.8976 5.84209 7.81644 5.80393 7.76505 5.79158C7.71367 5.77901 7.52466 5.68859 7.34513 5.59044C7.1656 5.4923 6.95741 5.38092 6.88308 5.34299C6.80898 5.30505 6.70554 5.22962 6.65371 5.17515C6.5677 5.0845 6.55954 5.05716 6.55954 4.84918C6.55954 4.63128 6.56417 4.6187 6.66496 4.53446C6.72274 4.48616 6.81537 4.44006 6.87051 4.43168C6.92587 4.42352 7.91701 4.42418 9.07291 4.43322L11.1747 4.44976L11.1624 1.78113L10.7864 1.75885C10.5797 1.7465 9.53628 1.73238 8.46794 1.72709C6.00331 1.71496 5.86128 1.73128 5.04459 2.1232C4.86065 2.21164 4.64562 2.32963 4.56666 2.38565C4.33089 2.55371 3.8984 2.97915 3.8984 3.04311C3.8984 3.07575 3.88516 3.10265 3.8695 3.10265C3.79386 3.10265 3.45311 3.74136 3.45245 3.8845C3.45245 3.93809 3.43988 3.99521 3.42488 4.01175C3.32431 4.12291 3.29255 5.09156 3.37592 5.50685C3.40393 5.64712 3.43966 5.82621 3.45531 5.90517C3.48531 6.0547 3.61477 6.32531 3.7632 6.54829C3.81106 6.6204 3.86443 6.70201 3.88208 6.73002C3.96059 6.85683 4.48858 7.3427 4.71134 7.49422C5.02209 7.70506 5.39923 7.93443 5.49605 7.97149C5.53685 7.98714 5.69918 8.06941 5.85687 8.15498C6.01456 8.24055 6.20798 8.33694 6.2865 8.37024C6.36545 8.4031 6.63077 8.52661 6.87602 8.64394C8.18652 9.27272 8.29922 9.33778 8.41082 9.52768C8.52551 9.72374 8.52882 9.92753 8.42053 10.0872C8.37664 10.1516 8.31665 10.2041 8.28709 10.2043C8.25732 10.2043 8.22291 10.2211 8.21034 10.2414C8.18674 10.2795 5.4848 10.2621 4.14475 10.2153L3.54772 10.1944V9.49901C3.54772 8.90198 3.54111 8.80362 3.49986 8.80362C3.47362 8.80362 3.45223 8.81751 3.45223 8.8356C3.45223 8.85302 3.43591 8.86757 3.41584 8.86757C3.37636 8.86757 3.03826 9.14326 2.99679 9.2092C2.9829 9.2317 2.92776 9.2725 2.87461 9.29963C2.82146 9.3272 2.69663 9.42424 2.59738 9.51555C2.49791 9.60707 2.3497 9.72771 2.26832 9.78373C2.18672 9.83975 2.11548 9.89709 2.10931 9.91055C2.09321 9.94804 1.77981 10.205 1.75069 10.205C1.73658 10.205 1.68012 10.2526 1.6252 10.3106C1.57028 10.3693 1.3751 10.5371 1.19116 10.6849C1.00744 10.8324 0.828139 10.9822 0.793292 11.017C0.758445 11.0519 0.677283 11.1163 0.613104 11.1602C0.548704 11.2038 0.415492 11.3165 0.316245 11.4105L0.136719 11.5808L0.337639 11.7678C0.447913 11.8706 0.548704 11.9553 0.561054 11.9557C0.573846 11.9561 0.695368 12.0569 0.831888 12.1793C0.968187 12.3024 1.09677 12.4025 1.11772 12.4025C1.13867 12.4025 1.1744 12.4275 1.19756 12.4585C1.22049 12.4896 1.31754 12.5792 1.41347 12.6577C1.50985 12.7362 1.61704 12.8244 1.65233 12.8531C1.68762 12.8824 1.80826 12.9824 1.92008 13.0763C2.03211 13.1703 2.18495 13.2924 2.25972 13.3485C2.33449 13.4043 2.4452 13.5002 2.50585 13.5604C2.5665 13.6211 2.67148 13.7066 2.73963 13.7503C2.80778 13.7942 2.94893 13.9104 3.05436 14.0075C3.15934 14.1047 3.26189 14.1852 3.28285 14.1857C3.30336 14.1857 3.3532 14.228 3.39422 14.2798C3.53802 14.4618 3.54596 14.4311 3.555 13.6526L3.5636 12.9281L3.70696 12.9321C3.78548 12.9345 4.61297 12.9389 5.54589 12.9431C6.72671 12.9477 7.24147 12.9601 7.24147 12.9843C7.24147 13.0232 8.23262 12.9969 8.73812 12.944C9.13466 12.9027 9.6342 12.8048 9.70941 12.7539C9.72706 12.7417 9.82718 12.6983 9.93239 12.657C10.0378 12.6156 10.1307 12.5735 10.1393 12.5626C10.1701 12.5256 10.3982 12.4027 10.437 12.4027C10.4591 12.4027 10.5263 12.3562 10.5876 12.2989C10.6485 12.2424 10.7535 12.1529 10.8205 12.1004C10.9586 11.9923 11.3044 11.5598 11.4063 11.3682C11.5095 11.1734 11.6659 10.6811 11.7173 10.3887C11.8207 9.80204 11.7543 9.02747 11.5603 8.55219C11.5144 8.43883 11.4769 8.33495 11.4769 8.32017Z" fill="white"/>
<path d="M19.6944 1.73416V5.76049C19.6944 8.24211 19.6827 9.81771 19.664 9.86711C19.6245 9.97099 19.4125 10.2052 19.3585 10.2052C19.3356 10.2052 19.2976 10.2246 19.2738 10.2478C19.1627 10.3589 18.8918 10.4119 18.4362 10.4119H17.9904L17.7377 10.289C17.4733 10.1609 17.4003 10.0916 17.282 9.85785L17.2104 9.71603V1.73394H13.8971L13.9074 6.05713C13.9169 9.90394 13.9235 10.3975 13.9687 10.5398C14.0634 10.8366 14.1626 11.0779 14.2537 11.2325C14.3035 11.3174 14.3443 11.4008 14.3443 11.418C14.3443 11.5292 15.1769 12.4028 15.283 12.4028C15.2947 12.4028 15.3644 12.4427 15.4378 12.4903C15.7962 12.725 15.9338 12.7922 16.3235 12.9224C16.7512 13.0651 17.142 13.1597 17.5288 13.2135C17.943 13.2717 18.9642 13.2722 19.344 13.2148C19.9015 13.1308 20.3117 13.0265 20.6068 12.8939C20.662 12.869 20.7312 12.8487 20.7608 12.8487C20.8243 12.8487 21.3386 12.5794 21.4301 12.4985C21.4652 12.4672 21.5461 12.4153 21.6103 12.3827C21.7625 12.3046 22.2973 11.8084 22.3606 11.6864C22.388 11.6341 22.4409 11.5596 22.4786 11.5214C22.5704 11.4288 22.7887 11.0268 22.8368 10.8627C22.858 10.7903 22.9116 10.602 22.9557 10.4445L23.0359 10.1578L23.0381 1.73438L19.6944 1.73416Z" fill="white"/>
<path fill-rule="evenodd" clip-rule="evenodd" d="M34.6634 8.43838C34.6498 8.42074 34.6209 8.34928 34.5988 8.27893C34.5384 8.08771 34.1582 7.62809 33.8867 7.41835C33.8192 7.36652 33.7303 7.29285 33.6893 7.25514C33.648 7.21743 33.5563 7.16075 33.4855 7.12987C33.4149 7.09833 33.3567 7.06393 33.3567 7.0529C33.3567 7.03349 33.5336 6.89388 33.5583 6.89388C33.5821 6.89388 34.0891 6.39302 34.0891 6.36964C34.0891 6.35685 34.116 6.30855 34.1491 6.26201C34.2433 6.12924 34.427 5.77085 34.4711 5.63345C34.4934 5.56464 34.5274 5.48855 34.547 5.46385C34.5706 5.43407 34.5818 5.21551 34.5803 4.81102C34.5781 4.24487 34.5721 4.18444 34.4936 3.93765C34.397 3.63329 34.1738 3.16815 34.0572 3.02722C33.8514 2.77933 33.6097 2.5429 33.4279 2.41322C33.1758 2.23303 32.7341 2.01733 32.4013 1.91213C31.8896 1.75047 31.5436 1.73481 28.4488 1.73481H25.6181V13.0086L28.6195 13.0075C31.6713 13.0064 31.9608 12.9965 32.3369 12.8833C32.3982 12.8648 32.4877 12.8494 32.5351 12.8494C32.6196 12.8494 32.9198 12.7283 33.1811 12.5887L33.4826 12.4277C33.6322 12.3481 33.8146 12.1945 34.1024 11.9078C34.189 11.8212 34.3829 11.5499 34.4817 11.3781C34.5666 11.2294 34.7594 10.6772 34.8238 10.398C34.878 10.1613 34.9067 9.54466 34.8767 9.25155C34.8538 9.02637 34.7179 8.50896 34.6634 8.43838ZM28.8972 4.18244L29.8156 4.1928C30.5225 4.20078 30.7044 4.20283 30.8434 4.2811C30.8916 4.30821 30.9346 4.34448 30.9925 4.39332L30.9964 4.3966C31.2445 4.60523 31.3411 5.08603 31.2359 5.588C31.1993 5.76334 30.9836 6.05534 30.8306 6.13717C30.702 6.20598 30.659 6.20928 29.7966 6.21921L28.897 6.22913L28.8972 4.18244ZM31.2988 10.2056C31.3227 10.2056 31.3773 10.1313 31.4193 10.0407C31.49 9.89003 31.4967 9.8371 31.496 9.41122L31.4956 8.94718L31.3778 8.76545C31.3129 8.66488 31.1994 8.54336 31.1255 8.4944L30.9918 8.40574L29.9702 8.38986C29.4083 8.38126 28.9379 8.37883 28.9248 8.38412C28.9118 8.38942 28.901 8.87308 28.901 9.45864V10.5239H29.7945C30.3699 10.5239 30.7411 10.5102 30.8374 10.4864C31.0007 10.446 31.2108 10.3219 31.2384 10.2506C31.2481 10.2257 31.2755 10.2056 31.2988 10.2056Z" fill="white"/>
<path d="M47.419 9.81286L47.3463 9.93659C47.2512 10.0985 47.2512 10.0985 47.0348 10.1794C46.9177 10.2235 46.7631 10.2478 46.599 10.2478C46.3075 10.2478 46.0313 10.1741 45.9125 10.0652C45.882 10.0367 45.826 9.95842 45.7976 9.89513C45.749 9.79058 45.7471 9.39448 45.7468 5.82159C45.7464 3.99545 45.742 1.80672 45.7206 1.75093C45.678 1.63977 45.678 1.63977 43.9917 1.63977H42.2763V5.72389C42.2763 8.59609 42.2615 9.71317 42.2489 9.79478C42.1596 10.1062 41.8425 10.2096 41.5926 10.2412C41.3659 10.2703 41.0699 10.2341 40.9442 10.1713C40.9237 10.1611 40.8224 10.1137 40.7792 10.1135C40.7552 10.1018 40.6826 10.02 40.6246 9.88211C40.573 9.75971 40.5708 9.42072 40.5635 5.79491L40.5556 1.77497L40.554 1.73174L40.5262 1.70373C40.4751 1.6519 40.4625 1.63955 38.8209 1.63955H37.0859V6.28055C37.0857 10.2948 37.0857 10.2948 37.2689 10.8497L37.287 10.9039C37.4659 11.4498 37.7001 11.8205 38.122 12.2281C38.3419 12.4409 38.4019 12.4852 38.4356 12.495C38.4608 12.5086 38.5369 12.5554 38.6341 12.622C38.9167 12.8156 38.9802 12.8463 39.388 12.9837C39.7947 13.1211 40.0719 13.1897 40.4471 13.2457C40.6332 13.2739 40.9435 13.2905 41.2772 13.2905C41.6127 13.2905 41.9095 13.2737 42.0714 13.2453C42.4854 13.1729 43.1699 12.9537 43.4033 12.8183C43.4637 12.7834 43.5817 12.708 43.6646 12.6504C43.8098 12.5499 43.9494 12.4533 44.021 12.4616C44.055 12.4806 44.0808 12.4991 44.0821 12.4991C44.1419 12.5715 44.7541 12.9113 44.8355 12.929C44.8741 12.9376 44.941 12.9588 44.9782 12.9746C45.1558 13.0496 45.528 13.1608 45.7914 13.2177C45.9791 13.2583 46.3436 13.2823 46.7678 13.2823C47.1879 13.2823 47.5575 13.2587 47.7567 13.219C48.0674 13.157 48.4391 13.0549 48.6027 12.9863C48.6532 12.9652 48.75 12.9308 48.8178 12.9094C48.8958 12.8851 49.0107 12.8313 49.0793 12.7874L49.4124 12.5761C49.5387 12.4961 49.7478 12.3273 49.8782 12.2005C50.0616 12.0212 50.4919 11.5294 50.4928 11.3938C50.4957 11.3779 50.5208 11.3137 50.561 11.2438C50.658 11.0733 50.7817 10.7277 50.8609 10.4033C50.9138 10.1874 50.9194 9.8541 50.9297 5.94598L50.941 1.63823L47.4532 1.65565L47.419 9.81286Z" fill="white"/>
<path fill-rule="evenodd" clip-rule="evenodd" d="M61.8162 2.83599C61.8894 2.94362 61.9677 3.04596 61.9924 3.07066C62.1715 3.24952 62.4346 3.96123 62.5072 4.38204C62.5513 4.63457 62.5581 5.21836 62.5581 8.84352V13.1025H59.0878V9.85407H56.7621V13.1021H53.2919V8.19753C53.2913 4.35447 53.2913 4.35447 53.4924 3.80994L53.5244 3.7237C53.6611 3.34634 53.7419 3.20034 53.9556 2.94252C54.0107 2.87636 54.0462 2.82431 54.0581 2.80379C54.0645 2.76983 54.1005 2.71315 54.2888 2.55083C54.3965 2.45775 54.533 2.33513 54.5923 2.27867C54.6829 2.19221 54.7542 2.14854 54.8047 2.14854C54.8026 2.14761 54.8131 2.14102 54.8313 2.12963C54.8516 2.1169 54.8814 2.09818 54.9139 2.07466C55.0462 1.97872 55.5453 1.7026 55.6598 1.7026C55.673 1.70171 55.7334 1.68605 55.795 1.65937C56.1653 1.50013 56.7923 1.37023 57.4314 1.32038C58.2034 1.2604 59.0695 1.35148 59.7527 1.56365C59.9007 1.60952 60.0877 1.66643 60.1674 1.68936C60.3665 1.74715 60.7004 1.91454 60.8972 2.05459C60.9838 2.1159 61.0626 2.15935 61.0807 2.16553C61.1629 2.19153 61.3322 2.35117 61.3517 2.36949C61.4496 2.4619 61.5533 2.54972 61.5855 2.5709C61.6459 2.61059 61.7472 2.73432 61.8162 2.83599ZM59.0905 7.05316V5.03514L59.0142 4.82936C58.9266 4.59249 58.8959 4.56272 58.605 4.43193C58.4024 4.34041 58.3556 4.33092 58.0512 4.31946C57.667 4.30578 57.4397 4.33754 57.1957 4.45112C56.9739 4.55434 56.9485 4.57816 56.8565 4.76827L56.7802 4.9253L56.763 7.05316H59.0905Z" fill="white"/>
<path d="M78.8874 2.79435C78.6806 2.60005 78.61 2.56873 78.5771 2.56366C78.5683 2.55814 78.5511 2.54425 78.5361 2.52594C78.4935 2.47301 78.3678 2.36384 78.2717 2.28797C78.1599 2.19997 78.0527 2.11087 78.0231 2.0833C77.9823 2.04515 77.7812 1.87929 77.6129 1.74278C77.4111 1.57935 77.2285 1.42276 77.1852 1.37909C77.1043 1.29793 77.056 1.2708 77.0267 1.26176C76.9991 1.24279 76.9135 1.17354 76.7896 1.05929C76.59 0.875578 76.5196 0.827939 76.4832 0.815589C76.4603 0.800371 76.3928 0.746557 76.3008 0.659881C76.191 0.556664 76.0466 0.43823 75.9716 0.390591C75.9056 0.348687 75.8328 0.288036 75.8114 0.261791C75.796 0.242824 75.764 0.203125 75.7104 0.203125C75.5874 0.203125 75.5874 0.21724 75.5867 0.962033L75.5863 1.5756L74.3991 1.57604C73.1569 1.5767 72.9922 1.58596 72.4399 1.68477C71.9638 1.7699 71.4521 2.07735 71.1369 2.46794C70.8826 2.7831 70.728 3.13179 70.6039 3.67147C70.5862 3.74933 70.5672 4.56381 70.5591 5.09247L70.5562 5.25501C70.5377 6.44068 70.5377 6.44068 70.3694 6.648L70.3443 6.67954C70.183 6.88046 69.7647 7.0205 69.3278 7.0205C69.1026 7.0205 68.7204 6.92567 68.6101 6.85752C68.446 6.75585 68.2718 6.57588 68.2453 6.50354C68.2131 6.37297 68.201 4.65468 68.197 4.09007L68.18 1.65544L64.7267 1.63801L64.7271 4.22571C64.7276 5.45439 64.7393 6.80282 64.758 6.93295C64.7948 7.18658 64.9298 7.64333 65.0368 7.8727C65.2368 8.30344 65.6949 8.82856 66.1256 9.12145C66.233 9.19445 66.3389 9.27297 66.3662 9.29789C66.4128 9.33935 66.4922 9.38148 66.5524 9.39515C66.5833 9.40199 66.6684 9.4386 66.7363 9.47742C66.8914 9.56564 67.3126 9.73855 67.5418 9.80692L67.6251 9.83228V13.1021H71.1272V9.84176L71.3255 9.77273C71.724 9.63511 72.4715 9.26128 72.6812 9.09498C72.9452 8.88568 73.3567 8.45936 73.4811 8.26572C73.6322 8.03062 73.8426 7.5507 73.9057 7.29773C73.9946 6.94133 74.0237 6.51765 74.0248 5.5554C74.0255 4.99653 74.0356 4.63946 74.0418 4.60086C74.0574 4.5411 74.5054 4.5411 74.6525 4.5411C74.7372 4.5411 74.8318 4.54176 74.9379 4.54308L75.5717 4.55058L75.5792 5.15025C75.5889 5.93695 75.6105 5.93695 75.714 5.93695C75.7645 5.93695 75.8086 5.90673 75.8284 5.86329C75.8719 5.8441 75.9544 5.7883 76.1328 5.62531C76.2594 5.50997 76.3458 5.44049 76.3727 5.42219C76.4069 5.40984 76.4693 5.36705 76.6233 5.22193C76.732 5.11849 76.8602 5.01351 76.9113 4.98043C76.9777 4.93742 77.1164 4.8234 77.2274 4.7204C77.3218 4.63306 77.3882 4.57859 77.4113 4.56249C77.4431 4.55058 77.4984 4.51309 77.6341 4.39245C77.8361 4.21204 78.4437 3.7072 78.6193 3.57399C78.6931 3.51797 78.8336 3.39645 78.932 3.3036L79.1805 3.06893L78.8874 2.79435Z" fill="white"/>
</svg>
